<svg width="20" height="26" viewBox="0 0 20 26" fill="none" xmlns="http://www.w3.org/2000/svg">
<path d="M1.30605 25.0889L1.30524 25.0886C1.04511 24.9886 0.85 24.7692 0.85 24.4999V3C0.85 1.78118 2.10835 0.85 3.57147 0.85H16.4287C17.8918 0.85 19.1502 1.78118 19.1501 3V24.4998C19.1501 24.7692 18.9551 24.9886 18.6949 25.0886L18.6941 25.0889C18.5862 25.1297 18.4715 25.1499 18.3573 25.1499C18.1937 25.1499 18.0284 25.1088 17.8886 25.0251L17.8885 25.0251L10.0001 20.3055L2.11186 25.0249L1.30605 25.0889ZM1.30605 25.0889C1.56845 25.1881 1.8765 25.1663 2.11158 25.0251L1.30605 25.0889ZM9.5313 18.9747L2.43571 23.2197V3C2.43571 2.56446 2.90768 2.15003 3.57141 2.15003H16.4286C17.0924 2.15003 17.5643 2.56446 17.5643 3V23.2197L10.4688 18.9747L10.4686 18.9746C10.3275 18.8905 10.1623 18.8499 10.0001 18.8499C9.83776 18.8499 9.67264 18.8905 9.53156 18.9746L9.5313 18.9747Z" fill="white" stroke="white" stroke-width="0.3"/>
</svg>
