<svg width="10" height="11" viewBox="0 0 10 11" fill="none" xmlns="http://www.w3.org/2000/svg">
<g clip-path="url(#clip0)">
<path d="M4.58333 5.5C6.02995 5.5 7.20238 4.26895 7.20238 2.75C7.20238 1.23105 6.02995 0 4.58333 0C3.13672 0 1.96429 1.23105 1.96429 2.75C1.96429 4.26895 3.13672 5.5 4.58333 5.5ZM6.41667 6.1875H6.07496C5.62072 6.40664 5.11533 6.53125 4.58333 6.53125C4.05134 6.53125 3.54799 6.40664 3.0917 6.1875H2.75C1.23177 6.1875 0 7.48086 0 9.075V9.96875C0 10.5381 0.439918 11 0.982143 11H8.18452C8.72675 11 9.16667 10.5381 9.16667 9.96875V9.075C9.16667 7.48086 7.9349 6.1875 6.41667 6.1875Z" fill="#575E83"/>
</g>
<defs>
<clipPath id="clip0">
<rect width="9.16667" height="11" fill="white"/>
</clipPath>
</defs>
</svg>
