<svg width="24" height="24" viewBox="0 0 24 24" fill="none" xmlns="http://www.w3.org/2000/svg">
<path d="M11.8289 11.5609C13.4172 11.5609 14.7923 10.9913 15.9162 9.86735C17.0397 8.74364 17.6095 7.3687 17.6095 5.78026C17.6095 4.19237 17.0399 2.81726 15.916 1.69317C14.7921 0.56964 13.417 0 11.8289 0C10.2405 0 8.86552 0.56964 7.7418 1.69336C6.61808 2.81707 6.04826 4.19219 6.04826 5.78026C6.04826 7.3687 6.61808 8.74382 7.7418 9.86753C8.86588 10.9911 10.241 11.5609 11.8289 11.5609ZM8.73643 2.6878C9.59867 1.82556 10.6101 1.40643 11.8289 1.40643C13.0475 1.40643 14.0591 1.82556 14.9215 2.6878C15.7838 3.55022 16.2031 4.56188 16.2031 5.78026C16.2031 6.99901 15.7838 8.01048 14.9215 8.87291C14.0591 9.73533 13.0475 10.1545 11.8289 10.1545C10.6105 10.1545 9.59904 9.73515 8.73643 8.87291C7.874 8.01066 7.45469 6.99901 7.45469 5.78026C7.45469 4.56188 7.874 3.55022 8.73643 2.6878Z" fill="white"/>
<path d="M21.9435 18.4548C21.9111 17.9871 21.8456 17.477 21.7491 16.9383C21.6517 16.3956 21.5262 15.8825 21.3761 15.4136C21.2208 14.9289 21.0101 14.4503 20.7491 13.9916C20.4787 13.5155 20.1608 13.1009 19.8041 12.7598C19.4312 12.403 18.9745 12.116 18.4464 11.9067C17.9202 11.6985 17.337 11.5931 16.7131 11.5931C16.4681 11.5931 16.2312 11.6936 15.7736 11.9915C15.492 12.1752 15.1626 12.3876 14.7949 12.6225C14.4805 12.8228 14.0546 13.0105 13.5286 13.1804C13.0153 13.3465 12.4942 13.4307 11.9797 13.4307C11.4655 13.4307 10.9444 13.3465 10.4308 13.1804C9.90527 13.0107 9.47919 12.823 9.16534 12.6227C8.80115 12.39 8.47156 12.1776 8.18573 11.9913C7.72852 11.6934 7.49158 11.5929 7.24658 11.5929C6.62256 11.5929 6.03955 11.6985 5.51349 11.9069C4.98578 12.1158 4.52893 12.4028 4.15558 12.76C3.79889 13.1013 3.48102 13.5157 3.21075 13.9916C2.9502 14.4503 2.73926 14.9287 2.58398 15.4137C2.43402 15.8827 2.30859 16.3956 2.21118 16.9383C2.1145 17.4762 2.04913 17.9866 2.01672 18.4553C1.98486 18.9136 1.96875 19.3906 1.96875 19.8725C1.96875 21.1253 2.367 22.1396 3.15234 22.8876C3.92798 23.6256 4.9541 23.9999 6.20233 23.9999H17.7585C19.0063 23.9999 20.0325 23.6256 20.8083 22.8876C21.5938 22.1401 21.9921 21.1255 21.9921 19.8724C21.9919 19.3888 21.9756 18.9118 21.9435 18.4548ZM19.8386 21.8686C19.326 22.3564 18.6456 22.5935 17.7583 22.5935H6.20233C5.31482 22.5935 4.6344 22.3564 4.12207 21.8688C3.61945 21.3903 3.37518 20.7372 3.37518 19.8725C3.37518 19.4228 3.39001 18.9788 3.41968 18.5525C3.44861 18.1343 3.50775 17.6749 3.59546 17.1868C3.68207 16.7046 3.7923 16.2522 3.9234 15.8426C4.04919 15.4498 4.22076 15.0609 4.43353 14.6863C4.6366 14.3292 4.87024 14.0229 5.12805 13.7761C5.3692 13.5452 5.67316 13.3562 6.03131 13.2145C6.36255 13.0834 6.7348 13.0116 7.13892 13.0008C7.18817 13.027 7.27588 13.077 7.41797 13.1696C7.70709 13.358 8.04034 13.573 8.40875 13.8083C8.82404 14.0731 9.35907 14.3122 9.99829 14.5185C10.6518 14.7299 11.3183 14.8372 11.9799 14.8372C12.6414 14.8372 13.3081 14.7299 13.9612 14.5187C14.601 14.312 15.1359 14.0731 15.5517 13.8079C15.9287 13.567 16.2526 13.3582 16.5417 13.1696C16.6838 13.0771 16.7715 13.027 16.8208 13.0008C17.2251 13.0116 17.5974 13.0834 17.9288 13.2145C18.2867 13.3562 18.5907 13.5453 18.8318 13.7761C19.0897 14.0227 19.3233 14.329 19.5264 14.6865C19.7393 15.0609 19.9111 15.45 20.0367 15.8424C20.168 16.2526 20.2784 16.7048 20.3648 17.1866C20.4523 17.6756 20.5117 18.1352 20.5406 18.5527V18.5531C20.5704 18.9777 20.5854 19.4216 20.5856 19.8725C20.5854 20.7373 20.3412 21.3903 19.8386 21.8686Z" fill="white"/>
</svg>
