<svg width="30" height="31" viewBox="0 0 30 31" fill="none" xmlns="http://www.w3.org/2000/svg">
<path d="M24.1749 19.1125L22.9249 17.0375C22.6624 16.575 22.4249 15.7 22.4249 15.1875V12.025C22.4249 9.0875 20.6999 6.55 18.2124 5.3625C17.5624 4.2125 16.3624 3.5 14.9874 3.5C13.6249 3.5 12.3999 4.2375 11.7499 5.4C9.31243 6.6125 7.62493 9.125 7.62493 12.025V15.1875C7.62493 15.7 7.38743 16.575 7.12493 17.025L5.86243 19.1125C5.36243 19.95 5.24993 20.875 5.56243 21.725C5.86243 22.5625 6.57493 23.2125 7.49993 23.525C9.92493 24.35 12.4749 24.75 15.0249 24.75C17.5749 24.75 20.1249 24.35 22.5499 23.5375C23.4249 23.25 24.0999 22.5875 24.4249 21.725C24.7499 20.8625 24.6624 19.9125 24.1749 19.1125Z" fill="#C9CDDB"/>
<path d="M18.5376 26.0125C18.0126 27.4625 16.6251 28.5 15.0001 28.5C14.0126 28.5 13.0376 28.1 12.3501 27.3875C11.9501 27.0125 11.6501 26.5125 11.4751 26C11.6376 26.025 11.8001 26.0375 11.9751 26.0625C12.2626 26.1 12.5626 26.1375 12.8626 26.1625C13.5751 26.225 14.3001 26.2625 15.0251 26.2625C15.7376 26.2625 16.4501 26.225 17.1501 26.1625C17.4126 26.1375 17.6751 26.125 17.9251 26.0875C18.1251 26.0625 18.3251 26.0375 18.5376 26.0125Z" fill="#C9CDDB"/>
<circle cx="21.5" cy="5.5" r="4.25" fill="#EB5757" stroke="white" stroke-width="1.5"/>
</svg>
