<svg width="19" height="16" viewBox="0 0 19 16" fill="none" xmlns="http://www.w3.org/2000/svg">
<path fill-rule="evenodd" clip-rule="evenodd" d="M8.97342 15.5669C8.55968 16.0927 7.83956 16.1474 7.36498 15.689L0.390866 8.95213C0.142531 8.71225 2.8802e-08 8.36505 0 8C-2.8802e-08 7.63495 0.14253 7.28776 0.390866 7.04787L7.36498 0.311041C7.83956 -0.147389 8.55968 -0.092739 8.97342 0.43311C9.38715 0.958957 9.33783 1.75687 8.86325 2.21531L4.18245 6.73685L17.86 6.73684C18.4896 6.73684 19 7.30238 19 8C19 8.69762 18.4896 9.26315 17.86 9.26315L4.18245 9.26315L8.86325 13.7847C9.33783 14.2431 9.38715 15.041 8.97342 15.5669Z" fill="white"/>
</svg>
