<svg width="23" height="16" viewBox="0 0 23 16" fill="none" xmlns="http://www.w3.org/2000/svg">
<path fill-rule="evenodd" clip-rule="evenodd" d="M12.5252 0.304781C12.873 -0.0652603 13.4784 -0.103719 13.8773 0.218881L22.6714 7.32998C22.8802 7.49879 23 7.74311 23 8C23 8.25688 22.8802 8.50121 22.6714 8.67002L13.8773 15.7811C13.4784 16.1037 12.873 16.0653 12.5252 15.6952C12.1774 15.3252 12.2188 14.7637 12.6178 14.4411L19.4841 8.88889H0.958333C0.42906 8.88889 0 8.49092 0 8C0 7.50908 0.42906 7.11111 0.958333 7.11111H19.4841L12.6178 1.55892C12.2188 1.23632 12.1774 0.674822 12.5252 0.304781Z" fill="white"/>
</svg>
