<svg width="45" height="10" viewBox="0 0 45 10" fill="none" xmlns="http://www.w3.org/2000/svg">
<path fill-rule="evenodd" clip-rule="evenodd" d="M0.178916 9.82808C-0.0596388 9.59886 -0.0596388 9.22722 0.178917 8.998L3.81937 5.5L0.178917 2.002C-0.0596381 1.77278 -0.0596381 1.40114 0.178917 1.17192C0.417473 0.942695 0.804248 0.942695 1.0428 1.17192L5.1152 5.08496C5.22976 5.19504 5.29412 5.34433 5.29412 5.5C5.29412 5.65567 5.22976 5.80497 5.1152 5.91504L1.0428 9.82808C0.804247 10.0573 0.417472 10.0573 0.178916 9.82808Z" fill="white" fill-opacity="0.05"/>
<path fill-rule="evenodd" clip-rule="evenodd" d="M23.1789 9.82808C22.9404 9.59886 22.9404 9.22722 23.1789 8.998L26.8194 5.5L23.1789 2.002C22.9404 1.77278 22.9404 1.40114 23.1789 1.17192C23.4175 0.942695 23.8042 0.942695 24.0428 1.17192L28.1152 5.08496C28.2298 5.19504 28.2941 5.34433 28.2941 5.5C28.2941 5.65567 28.2298 5.80497 28.1152 5.91504L24.0428 9.82808C23.8042 10.0573 23.4175 10.0573 23.1789 9.82808Z" fill="white" fill-opacity="0.6"/>
<path fill-rule="evenodd" clip-rule="evenodd" d="M15.1789 8.82808C14.9404 8.59886 14.9404 8.22722 15.1789 7.998L18.8194 4.5L15.1789 1.002C14.9404 0.772777 14.9404 0.401136 15.1789 0.171916C15.4175 -0.0573052 15.8042 -0.0573052 16.0428 0.171916L20.1152 4.08496C20.2298 4.19504 20.2941 4.34433 20.2941 4.5C20.2941 4.65567 20.2298 4.80497 20.1152 4.91504L16.0428 8.82808C15.8042 9.0573 15.4175 9.0573 15.1789 8.82808Z" fill="white" fill-opacity="0.3"/>
<path fill-rule="evenodd" clip-rule="evenodd" d="M39.1789 9.82808C38.9404 9.59886 38.9404 9.22722 39.1789 8.998L42.8194 5.5L39.1789 2.002C38.9404 1.77278 38.9404 1.40114 39.1789 1.17192C39.4175 0.942695 39.8042 0.942695 40.0428 1.17192L44.1152 5.08496C44.2298 5.19504 44.2941 5.34433 44.2941 5.5C44.2941 5.65567 44.2298 5.80497 44.1152 5.91504L40.0428 9.82808C39.8042 10.0573 39.4175 10.0573 39.1789 9.82808Z" fill="white"/>
<path fill-rule="evenodd" clip-rule="evenodd" d="M8.17892 9.82808C7.94036 9.59886 7.94036 9.22722 8.17892 8.998L11.8194 5.5L8.17892 2.002C7.94036 1.77278 7.94036 1.40114 8.17892 1.17192C8.41747 0.942695 8.80425 0.942695 9.0428 1.17192L13.1152 5.08496C13.2298 5.19504 13.2941 5.34433 13.2941 5.5C13.2941 5.65567 13.2298 5.80497 13.1152 5.91504L9.0428 9.82808C8.80425 10.0573 8.41747 10.0573 8.17892 9.82808Z" fill="white" fill-opacity="0.15"/>
<path fill-rule="evenodd" clip-rule="evenodd" d="M31.1789 9.82808C30.9404 9.59886 30.9404 9.22722 31.1789 8.998L34.8194 5.5L31.1789 2.002C30.9404 1.77278 30.9404 1.40114 31.1789 1.17192C31.4175 0.942695 31.8042 0.942695 32.0428 1.17192L36.1152 5.08496C36.2298 5.19504 36.2941 5.34433 36.2941 5.5C36.2941 5.65567 36.2298 5.80497 36.1152 5.91504L32.0428 9.82808C31.8042 10.0573 31.4175 10.0573 31.1789 9.82808Z" fill="white" fill-opacity="0.8"/>
</svg>
