<svg width="23" height="23" viewBox="0 0 23 23" fill="none" xmlns="http://www.w3.org/2000/svg">
<path d="M7.6956 0.615675C4.93439 1.58583 2.54632 3.67539 1.20303 6.28735C0.75527 7.18287 0.382134 8.15303 0.232879 9.19781C-0.289511 11.6605 0.0836251 14.3471 1.20303 16.5859C1.94931 18.0785 2.99409 19.3471 4.33738 20.3919C5.53141 21.3621 6.94933 22.1083 8.5165 22.4815C10.4568 23.0038 12.4717 23.0039 14.3374 22.5561C16.0539 22.183 17.6957 21.362 19.0389 20.0934C20.4569 18.8247 21.427 17.1829 21.9494 15.3172C22.5464 13.3769 22.6211 11.2874 22.2479 9.27244C18.6658 9.27244 15.0837 9.27244 11.5016 9.27244C11.5016 10.765 11.5016 12.2575 11.5016 13.7501C13.5912 13.7501 15.6807 13.7501 17.6957 13.7501C17.4718 15.168 16.5762 16.5113 15.3822 17.2576C14.6359 17.7799 13.7404 18.0784 12.8449 18.2277C11.9494 18.377 10.9792 18.377 10.0837 18.2277C9.18815 18.0784 8.29262 17.6307 7.54635 17.1083C6.35231 16.2874 5.38216 15.0187 4.9344 13.6008C4.41201 12.1829 4.41201 10.6157 4.9344 9.12318C5.30753 8.15303 5.82992 7.18287 6.57619 6.4366C7.47172 5.46645 8.66576 4.7948 10.009 4.57092C11.1285 4.34704 12.2479 4.34704 13.3673 4.72017C14.2628 5.01868 15.1583 5.54107 15.83 6.13809C16.5016 5.46645 17.2479 4.72017 17.9195 4.04853C18.2927 3.67539 18.6658 3.30226 19.0389 2.92912C17.9942 1.95897 16.7255 1.13807 15.3822 0.615675C12.9195 -0.205225 10.1583 -0.205225 7.6956 0.615675Z" fill="#202244"/>
<path d="M7.69496 0.615684C10.1577 -0.205216 12.9189 -0.205216 15.3816 0.690311C16.7249 1.2127 17.9935 1.95897 19.0383 3.00376C18.6652 3.37689 18.292 3.75003 17.9189 4.12316C17.2473 4.79481 16.501 5.54108 15.8293 6.21273C15.1577 5.54108 14.2622 5.01869 13.3666 4.79481C12.3219 4.4963 11.1278 4.42167 10.0084 4.64556C8.73974 4.94406 7.54571 5.61571 6.57555 6.51124C5.82928 7.25751 5.23226 8.22766 4.93376 9.19782C3.66509 8.22766 2.47106 7.25751 1.20239 6.28735C2.54568 3.6754 4.93375 1.58584 7.69496 0.615684Z" fill="#EA4335"/>
<path d="M0.232391 9.19782C0.456273 8.22766 0.754782 7.25751 1.20255 6.28735C2.47121 7.25751 3.66525 8.22766 4.93391 9.19782C4.41152 10.6157 4.41152 12.1829 4.93391 13.6755C3.66525 14.6456 2.47121 15.6158 1.20255 16.5859C0.0831368 14.2725 -0.29 11.6605 0.232391 9.19782Z" fill="#FBBC05"/>
<path d="M11.4265 9.27246C15.0086 9.27246 18.5907 9.27246 22.1728 9.27246C22.546 11.2874 22.4713 13.377 21.8743 15.3173C21.3519 17.1083 20.3818 18.7501 18.9639 20.0934C17.7698 19.1233 16.5758 18.2277 15.3071 17.2576C16.5012 16.4367 17.3221 15.168 17.6206 13.7501C15.531 13.7501 13.4414 13.7501 11.4265 13.7501C11.4265 12.2576 11.4265 10.765 11.4265 9.27246Z" fill="#4285F4"/>
<path d="M1.20239 16.5859C2.47106 15.6157 3.66509 14.6456 4.93376 13.6754C5.38152 15.0933 6.35167 16.362 7.54571 17.1829C8.29198 17.7053 9.18751 18.0784 10.083 18.3023C10.9786 18.4516 11.8741 18.4516 12.8442 18.3023C13.7398 18.1531 14.6353 17.7799 15.3816 17.3322C16.5756 18.3023 17.7696 19.1978 19.0383 20.168C17.695 21.362 16.1278 22.1829 14.3368 22.6307C12.3965 23.0784 10.3815 23.0784 8.51586 22.5561C7.02332 22.1829 5.6054 21.4366 4.33674 20.4665C3.06807 19.3471 1.94867 18.0038 1.20239 16.5859Z" fill="#34A853"/>
</svg>
