<svg width="15" height="17" viewBox="0 0 15 17" fill="none" xmlns="http://www.w3.org/2000/svg">
<path fill-rule="evenodd" clip-rule="evenodd" d="M7.1234 4.41189C7.1234 5.90962 5.90925 7.12377 4.41152 7.12377C2.91379 7.12377 1.69963 5.90962 1.69963 4.41189C1.69963 2.91415 2.91379 1.7 4.41152 1.7C5.90925 1.7 7.1234 2.91415 7.1234 4.41189ZM8.73601 5.29002C8.32887 7.30593 6.54745 8.82377 4.41152 8.82377C1.9749 8.82377 -0.000366211 6.8485 -0.000366211 4.41189C-0.000366211 1.97527 1.9749 0 4.41152 0C6.54744 0 8.32885 1.51783 8.736 3.53372C8.76459 3.53093 8.79357 3.52949 8.82288 3.52949H13.2348C13.7221 3.52949 14.1171 3.92455 14.1171 4.41187C14.1171 4.89919 13.7221 5.29425 13.2348 5.29425H8.82288C8.79357 5.29425 8.76459 5.29281 8.73601 5.29002Z" fill="white"/>
<path fill-rule="evenodd" clip-rule="evenodd" d="M7.8766 12.3533C7.8766 10.8555 9.09075 9.64137 10.5885 9.64137C12.0862 9.64137 13.3004 10.8555 13.3004 12.3533C13.3004 13.851 12.0862 15.0651 10.5885 15.0651C9.09075 15.0651 7.8766 13.851 7.8766 12.3533ZM6.26399 11.4751C6.67112 9.45921 8.45255 7.94137 10.5885 7.94137C13.0251 7.94137 15.0004 9.91663 15.0004 12.3533C15.0004 14.7899 13.0251 16.7651 10.5885 16.7651C8.45256 16.7651 6.67114 15.2473 6.264 13.2314C6.2354 13.2342 6.2064 13.2356 6.17706 13.2356L1.76518 13.2356C1.27786 13.2356 0.882802 12.8406 0.882802 12.3533C0.882802 11.8659 1.27786 11.4709 1.76518 11.4709L6.17706 11.4709C6.2064 11.4709 6.23539 11.4723 6.26399 11.4751Z" fill="white"/>
</svg>
