<svg width="10" height="13" viewBox="0 0 10 13" fill="none" xmlns="http://www.w3.org/2000/svg">
<path fill-rule="evenodd" clip-rule="evenodd" d="M0.257159 5.90357C-0.0550637 5.63137 -0.0875134 5.15761 0.184681 4.84538L4.18468 0.25715C4.32711 0.0937708 4.53326 7.55519e-07 4.75001 7.46045e-07C4.96676 7.3657e-07 5.17291 0.0937708 5.31534 0.257149L9.31534 4.84538C9.58753 5.15761 9.55508 5.63137 9.24286 5.90357C8.93064 6.17576 8.45687 6.14331 8.18468 5.83109L5.50001 2.75161L5.50001 11.75C5.50001 12.1642 5.16422 12.5 4.75001 12.5C4.3358 12.5 4.00001 12.1642 4.00001 11.75L4.00001 2.75161L1.31534 5.83109C1.04315 6.14331 0.569382 6.17576 0.257159 5.90357Z" fill="white"/>
</svg>
